<svg xmlns="http://www.w3.org/2000/svg" viewBox="0 0 48 48" width="48px" height="48px">
  <path fill="#4285F4" d="M24 9.5c1.9 0 3.6.7 4.9 1.6L33.8 8c-2.3-2.2-5.5-3.5-9.8-3.5C16.8 4.5 11 8.7 8.7 14.3l6.2 4.8C16.2 15.6 19.8 13 24 13c1.8 0 3.5.6 4.9 1.5L24 21.7v4.8h12.2c-.2 1.4-.7 2.7-1.5 3.8l6.2 4.8c1.6-2.5 2.5-5.5 2.5-8.7 0-1.2-.1-2.5-.4-3.7H24v-3.3z"/>
  <path fill="#34A853" d="M11.5 24c0-1.3.2-2.6.5-3.8l-6.2-4.8c-.7 1.5-1.1 3.2-1.1 4.8 0 1.7.4 3.3 1.1 4.8l6.2-4.8c-.3-1.3-.5-2.6-.5-4z"/>
  <path fill="#FBBC05" d="M24 38.5c-4.2 0-7.8-2.6-9.3-6.4l-6.2 4.8c2.3 5.6 7.9 9.8 15.5 9.8 4.4 0 8.2-1.7 10.8-4.4l-6.2-4.8c-1.2.8-2.6 1.2-4.6 1.2z"/>
  <path fill="#EA4335" d="M33.5 39.2c1.7-1.3 3-3.3 3.8-5.7H24v-3.5h19.8c.2 1.3.4 2.5.4 3.7 0 2.7-.8 5.2-2.2 7.3l-6.2-4.8c.6-1.1 1-2.4 1.3-3.8l-6.2-4.8z"/>
</svg>
